<?xml version="1.0" encoding="utf-8"?>
<!-- Generator: Adobe Illustrator 18.0.0, SVG Export Plug-In . SVG Version: 6.00 Build 0)  -->
<!DOCTYPE svg PUBLIC "-//W3C//DTD SVG 1.1//EN" "http://www.w3.org/Graphics/SVG/1.1/DTD/svg11.dtd">
<svg version="1.1" id="Слой_1" xmlns="http://www.w3.org/2000/svg" xmlns:xlink="http://www.w3.org/1999/xlink" x="0px" y="0px"
	 viewBox="0 4.1 100 91.9" enable-background="new 0 4.1 100 91.9" xml:space="preserve">
<path fill="#FFFFFF" d="M8.3,4.1H0v8.3C0,7.8,3.7,4.1,8.3,4.1z"/>
<path fill="#FFFFFF" d="M100,11.7V4.1h-8.3C96.1,4.1,99.6,7.4,100,11.7z"/>
<path fill="#FFFFFF" d="M63.9,65.4c-13.9,0-25.1-11.2-25.1-25.1S50,15.1,63.9,15.1s25.1,11.2,25.1,25.1c0,5.3-1.8,10.4-4.7,14.5
	l7.4,7.4V12.4H8.3v54.2h76l-5.9-6C74.3,63.6,69.2,65.4,63.9,65.4z"/>
<path fill="#FFFFFF" d="M63.9,21c-10.6,0-19.2,8.6-19.2,19.2s8.6,19.2,19.2,19.2c10.6,0,19.2-8.6,19.2-19.2S74.6,21,63.9,21z"/>
<path fill="#FFFFFF" d="M50,77c2.3,0,4.2-1.9,4.2-4.2s-1.9-4.2-4.2-4.2c-2.3,0-4.2,1.9-4.2,4.2S47.7,77,50,77z"/>
<path fill="#FFFFFF" d="M91.7,83.2H63.3l2.8,8.3h13.1c1.1,0,2.1,0.9,2.1,2.1c0,1.1-0.9,2.1-2.1,2.1H20.8c-1.1,0-2.1-0.9-2.1-2.1
	c0-1.1,0.9-2.1,2.1-2.1h13.1l2.8-8.3H8.3c-4.6,0-8.3-3.7-8.3-8.3v21h100V77.8c-0.2,0.1-0.4,0.2-0.6,0.2
	C98.2,81.1,95.2,83.2,91.7,83.2z"/>
<path fill="#F3A233" d="M8.3,83.2h28.4l-2.8,8.3H20.8c-1.1,0-2.1,0.9-2.1,2.1c0,1.1,0.9,2.1,2.1,2.1h58.3c1.1,0,2.1-0.9,2.1-2.1
	c0-1.1-0.9-2.1-2.1-2.1H66.1l-2.8-8.3h28.4c3.5,0,3.9-2.1,5.1-5.1c-1.6,0.6-3.3,0.3-4.5-0.8L81.7,66.7L8.3,66.6V12.4h83.3l-0.2,47.3
	l8.3,8.3l0.2-56.3c-0.3-4.3-3.9-7.6-8.3-7.6H8.3C3.7,4.1,0,7.8,0,12.4v62.5C0,79.5,3.7,83.2,8.3,83.2z M50,68.6
	c2.3,0,4.2,1.9,4.2,4.2c0,2.3-1.9,4.2-4.2,4.2c-2.3,0-4.2-1.9-4.2-4.2C45.8,70.5,47.7,68.6,50,68.6z"/>
<path fill="#F3A233" d="M90,60.6l-7.4-7.4c3-4.1,4.7-9.2,4.7-14.5c0-13.9-11.2-25.1-25.1-25.1S37.1,24.9,37.1,38.8
	s11.2,25.1,25.1,25.1c5.3,0,10.4-1.8,14.5-4.7l5.9,6H90V60.6z M62.2,58C51.6,58,43,49.4,43,38.8s8.6-19.2,19.2-19.2
	c10.6,0,19.2,8.6,19.2,19.2S72.9,58,62.2,58z"/>
<path fill="#F3A233" d="M98.7,69.4l-0.9-1V74v2.3c0.3-0.2,0.6-0.4,0.9-0.6C100.5,73.8,100.5,71.2,98.7,69.4z"/>
<path fill="#F3A233" d="M97.4,76.4c0.2-0.1,0.4-0.1,0.6-0.2V74C97.9,74.8,97.7,75.7,97.4,76.4z"/>
<path fill="#F3A233" d="M89.8,64.9h-7.3L93,75.5c1.1,1.1,2.9,1.4,4.5,0.8c0.3-0.8,0.5-1.6,0.6-2.4v-5.2l-8.3-8.3
	C89.8,60.4,89.8,64.9,89.8,64.9z"/>
</svg>
