<?xml version="1.0" encoding="utf-8"?>
<!-- Generator: Adobe Illustrator 18.0.0, SVG Export Plug-In . SVG Version: 6.00 Build 0)  -->
<!DOCTYPE svg PUBLIC "-//W3C//DTD SVG 1.1//EN" "http://www.w3.org/Graphics/SVG/1.1/DTD/svg11.dtd">
<svg version="1.1" id="Слой_1" xmlns="http://www.w3.org/2000/svg" xmlns:xlink="http://www.w3.org/1999/xlink" x="0px" y="0px"
	 viewBox="0 17.3 100 65.4" enable-background="new 0 17.3 100 65.4" xml:space="preserve">
<g>
	<g>
		<g>
			<defs>
				<rect id="SVGID_1_" y="17.3" width="100" height="65.4"/>
			</defs>
			<clipPath id="SVGID_2_">
				<use xlink:href="#SVGID_1_"  overflow="visible"/>
			</clipPath>
			<path clip-path="url(#SVGID_2_)" fill="#F3A233" d="M50,17.3c-22.1,0-41.1,13-49.8,31.8c-0.3,0.6-0.3,1.2,0,1.8
				C8.9,69.6,27.9,82.6,50,82.6s41.1-13,49.8-31.8c0.3-0.6,0.3-1.2,0-1.8C91,30.3,72,17.3,50,17.3L50,17.3z M50,72.5
				c-12.5,0-22.5-10.1-22.5-22.5c0-12.5,10.1-22.5,22.5-22.5c12.5,0,22.5,10.1,22.5,22.5C72.5,62.4,62.4,72.5,50,72.5L50,72.5z"/>
		</g>
	</g>
	<path fill="#F3A233" d="M64.4,49.9c0,8-6.5,14.4-14.4,14.4s-14.4-6.5-14.4-14.4S42,35.5,50,35.5S64.4,42,64.4,49.9L64.4,49.9z"/>
</g>
</svg>
