<?xml version="1.0" encoding="utf-8"?>
<!-- Generator: Adobe Illustrator 18.0.0, SVG Export Plug-In . SVG Version: 6.00 Build 0)  -->
<!DOCTYPE svg PUBLIC "-//W3C//DTD SVG 1.1//EN" "http://www.w3.org/Graphics/SVG/1.1/DTD/svg11.dtd">
<svg version="1.1" id="Слой_1" xmlns="http://www.w3.org/2000/svg" xmlns:xlink="http://www.w3.org/1999/xlink" x="0px" y="0px"
	 viewBox="0 0 102 76.2" enable-background="new 0 0 102 76.2" xml:space="preserve">
<g>
	<g>
		<defs>
			<rect id="SVGID_1_" x="0" width="79.9" height="71"/>
		</defs>
		<clipPath id="SVGID_2_">
			<use xlink:href="#SVGID_1_"  overflow="visible"/>
		</clipPath>
		<path clip-path="url(#SVGID_2_)" fill="#F4A13F" d="M56.3,38.4l-16,9.3l-16,9.3V19.7l16,9.3L56.3,38.4z M56.3,38.4"/>
		<path clip-path="url(#SVGID_2_)" fill="#F4A13F" d="M75.2,0H4.8C2.1,0,0,2.1,0,4.8v60.8c0,2.6,2.1,4.8,4.8,4.8h70.4
			c2.7,0,4.8-2.1,4.8-4.8V4.8C80,2.1,77.9,0,75.2,0L75.2,0z M63.2,3.2c1.8,0,3.2,1.4,3.2,3.2c0,1.8-1.4,3.2-3.2,3.2
			c-1.8,0-3.2-1.4-3.2-3.2C60,4.6,61.4,3.2,63.2,3.2L63.2,3.2z M54.4,3.2c1.8,0,3.2,1.4,3.2,3.2c0,1.8-1.4,3.2-3.2,3.2
			c-1.8,0-3.2-1.4-3.2-3.2C51.2,4.6,52.6,3.2,54.4,3.2L54.4,3.2z M75.2,65.6H4.8V12.8h70.4V65.6z M72,9.6c-1.8,0-3.2-1.4-3.2-3.2
			c0-1.8,1.4-3.2,3.2-3.2s3.2,1.4,3.2,3.2C75.2,8.2,73.8,9.6,72,9.6L72,9.6z M72,9.6"/>
	</g>
</g>
<rect x="70.4" y="42.8" fill-rule="evenodd" clip-rule="evenodd" width="21.1" height="3.5"/>
<polygon fill-rule="evenodd" clip-rule="evenodd" fill="#F4A13F" points="91.4,20 59.9,20 59.9,76.2 102,76.2 102,32.3 102,32.3 "/>
<polygon fill-rule="evenodd" clip-rule="evenodd" fill="#FFFFFF" points="96.6,32.3 89.7,32.3 89.6,24 "/>
<polygon fill-rule="evenodd" clip-rule="evenodd" fill="#FFFFFF" points="98.5,72.7 63.4,72.7 63.4,23.5 86.2,23.5 86.2,35.8 
	98.5,35.8 "/>
<rect x="70.4" y="51.6" fill-rule="evenodd" clip-rule="evenodd" fill="#F4A13F" width="21.1" height="3.5"/>
<rect x="70.4" y="60.4" fill-rule="evenodd" clip-rule="evenodd" fill="#F4A13F" width="21.1" height="3.5"/>
<path fill-rule="evenodd" clip-rule="evenodd" d="M70.4,63.9"/>
<rect x="70.4" y="43.1" fill-rule="evenodd" clip-rule="evenodd" fill="#F4A13F" width="21.1" height="3.5"/>
</svg>
